<svg width="42" height="43" viewBox="0 0 42 43" fill="none" xmlns="http://www.w3.org/2000/svg">
<path d="M12.25 0.666748H29.75C36.4167 0.666748 41.8334 6.08342 41.8334 12.7501V30.2501C41.8334 33.4548 40.5603 36.5282 38.2942 38.7943C36.0282 41.0604 32.9547 42.3334 29.75 42.3334H12.25C5.58335 42.3334 0.166687 36.9168 0.166687 30.2501V12.7501C0.166687 9.54538 1.43975 6.47194 3.70581 4.20587C5.97188 1.93981 9.04532 0.666748 12.25 0.666748ZM11.8334 4.83342C9.84423 4.83342 7.93658 5.62359 6.53005 7.03011C5.12353 8.43664 4.33335 10.3443 4.33335 12.3334V30.6667C4.33335 34.8126 7.68752 38.1668 11.8334 38.1668H30.1667C32.1558 38.1668 34.0635 37.3766 35.47 35.9701C36.8765 34.5635 37.6667 32.6559 37.6667 30.6667V12.3334C37.6667 8.18758 34.3125 4.83342 30.1667 4.83342H11.8334ZM31.9375 7.95842C32.6282 7.95842 33.2906 8.23278 33.7789 8.72116C34.2673 9.20953 34.5417 9.87191 34.5417 10.5626C34.5417 11.2533 34.2673 11.9156 33.7789 12.404C33.2906 12.8924 32.6282 13.1667 31.9375 13.1667C31.2469 13.1667 30.5845 12.8924 30.0961 12.404C29.6077 11.9156 29.3334 11.2533 29.3334 10.5626C29.3334 9.87191 29.6077 9.20953 30.0961 8.72116C30.5845 8.23278 31.2469 7.95842 31.9375 7.95842ZM21 11.0834C23.7627 11.0834 26.4122 12.1809 28.3657 14.1344C30.3192 16.0879 31.4167 18.7374 31.4167 21.5001C31.4167 24.2628 30.3192 26.9123 28.3657 28.8658C26.4122 30.8193 23.7627 31.9168 21 31.9168C18.2373 31.9168 15.5878 30.8193 13.6343 28.8658C11.6808 26.9123 10.5834 24.2628 10.5834 21.5001C10.5834 18.7374 11.6808 16.0879 13.6343 14.1344C15.5878 12.1809 18.2373 11.0834 21 11.0834ZM21 15.2501C19.3424 15.2501 17.7527 15.9086 16.5806 17.0807C15.4085 18.2528 14.75 19.8425 14.75 21.5001C14.75 23.1577 15.4085 24.7474 16.5806 25.9195C17.7527 27.0916 19.3424 27.7501 21 27.7501C22.6576 27.7501 24.2473 27.0916 25.4194 25.9195C26.5915 24.7474 27.25 23.1577 27.25 21.5001C27.25 19.8425 26.5915 18.2528 25.4194 17.0807C24.2473 15.9086 22.6576 15.2501 21 15.2501Z" fill="white"/>
</svg>
