<svg width="34" height="39" viewBox="0 0 34 39" fill="none" xmlns="http://www.w3.org/2000/svg">
<path d="M26.5833 6.625C25.1592 4.99921 24.3744 2.91132 24.375 0.75H17.9375V26.5833C17.8878 27.9813 17.2976 29.3055 16.2912 30.277C15.2847 31.2484 13.9405 31.7915 12.5417 31.7917C9.58332 31.7917 7.12499 29.375 7.12499 26.375C7.12499 22.7917 10.5833 20.1042 14.1458 21.2083V14.625C6.95832 13.6667 0.666656 19.25 0.666656 26.375C0.666656 33.3125 6.41666 38.25 12.5208 38.25C19.0625 38.25 24.375 32.9375 24.375 26.375V13.2708C26.9854 15.1455 30.1195 16.1513 33.3333 16.1458V9.70833C33.3333 9.70833 29.4167 9.89583 26.5833 6.625Z" fill="white"/>
</svg>
